<svg width="20" height="20" viewBox="0 0 20 20" fill="none" xmlns="http://www.w3.org/2000/svg">
<path d="M10 0C4.47755 0 0 4.47755 0 10C0 15.5224 4.47755 20 10 20C15.5224 20 20 15.5224 20 10C20 4.47755 15.5224 0 10 0ZM14.9143 6.8551L13.2735 14.5857C13.1592 15.1367 12.8286 15.2653 12.3673 15.0122L9.86735 13.1633L8.66735 14.3306C8.52653 14.4673 8.41633 14.5816 8.16735 14.5816C7.84286 14.5816 7.89796 14.4612 7.78776 14.151L6.93673 11.3551L4.46326 10.5857C3.92857 10.4224 3.92449 10.0551 4.58367 9.79184L14.2163 6.07347C14.6571 5.87551 15.0816 6.17959 14.9143 6.8551Z" fill="#07C1D2"/>
</svg>
