<svg width="24" height="14" viewBox="0 0 24 14" fill="none" xmlns="http://www.w3.org/2000/svg">
<path d="M23.8728 12.5199C23.8437 12.4573 23.8166 12.4053 23.7915 12.3637C23.3751 11.6138 22.5793 10.6933 21.4047 9.60193L21.3799 9.57694L21.3675 9.56468L21.3549 9.55212H21.3423C20.8093 9.04394 20.4717 8.70226 20.3303 8.52732C20.0716 8.19408 20.0137 7.85676 20.1551 7.51499C20.2549 7.25676 20.6301 6.71142 21.2797 5.87823C21.6214 5.43667 21.892 5.08277 22.0918 4.81614C23.5331 2.90002 24.158 1.67559 23.9663 1.14238L23.8919 1.01777C23.8418 0.942755 23.7127 0.874128 23.5047 0.811541C23.2962 0.749086 23.0297 0.738757 22.7047 0.78038L19.106 0.805239C19.0477 0.784581 18.9645 0.786507 18.856 0.811541C18.7477 0.836576 18.6935 0.849138 18.6935 0.849138L18.6309 0.880431L18.5812 0.918026C18.5395 0.942886 18.4937 0.98661 18.4436 1.04911C18.3939 1.11139 18.3523 1.18448 18.319 1.26777C17.9272 2.27577 17.4817 3.21295 16.9818 4.07928C16.6735 4.59586 16.3904 5.04355 16.1319 5.42262C15.8737 5.80155 15.6571 6.08074 15.4823 6.2597C15.3073 6.43884 15.1493 6.58236 15.0074 6.69077C14.8657 6.79922 14.7575 6.84504 14.6827 6.82828C14.6076 6.81152 14.5369 6.79489 14.47 6.77826C14.3534 6.70324 14.2597 6.60122 14.189 6.47211C14.118 6.34299 14.0702 6.18049 14.0452 5.98472C14.0204 5.78882 14.0057 5.62031 14.0015 5.47864C13.9976 5.33714 13.9994 5.13699 14.0078 4.87877C14.0165 4.62041 14.0204 4.44561 14.0204 4.35396C14.0204 4.03735 14.0265 3.69373 14.0389 3.32302C14.0515 2.95232 14.0617 2.6586 14.0703 2.44221C14.0788 2.22561 14.0827 1.99645 14.0827 1.75485C14.0827 1.51326 14.068 1.32379 14.0389 1.18627C14.0102 1.04893 13.9661 0.915619 13.9081 0.786375C13.8496 0.657263 13.7641 0.557386 13.6519 0.486484C13.5395 0.415669 13.3997 0.359472 13.2333 0.317718C12.7917 0.217798 12.2295 0.163746 11.5462 0.155342C9.99683 0.138711 9.00126 0.238762 8.55974 0.455365C8.3848 0.546882 8.22649 0.671924 8.08495 0.830098C7.93496 1.01344 7.91404 1.11349 8.02232 1.12995C8.52223 1.20483 8.87613 1.38397 9.08442 1.66719L9.15948 1.81726C9.21786 1.92554 9.27616 2.11724 9.3345 2.3921C9.39275 2.66696 9.43035 2.97101 9.44689 3.30407C9.48847 3.9123 9.48847 4.43296 9.44689 4.86608C9.40518 5.29937 9.36579 5.63668 9.3282 5.87827C9.2906 6.11987 9.23441 6.31564 9.15948 6.46554C9.08442 6.61549 9.03448 6.70714 9.00944 6.7404C8.98445 6.77366 8.96362 6.79463 8.94708 6.80285C8.8388 6.84434 8.72618 6.86548 8.60963 6.86548C8.4929 6.86548 8.35136 6.8071 8.18478 6.69042C8.01825 6.57373 7.84542 6.41346 7.66628 6.20933C7.48714 6.00516 7.28511 5.71984 7.0601 5.35333C6.83527 4.98683 6.60199 4.55367 6.3604 4.05385L6.16052 3.69137C6.03556 3.45818 5.86487 3.11863 5.64827 2.67304C5.43153 2.22727 5.23996 1.79608 5.07343 1.37955C5.00686 1.20461 4.90685 1.07143 4.77358 0.979782L4.71104 0.942186C4.66946 0.908923 4.60272 0.873603 4.51116 0.835963C4.41946 0.798367 4.32379 0.771407 4.22374 0.754819L0.799886 0.779679C0.450013 0.779679 0.21262 0.858941 0.0876216 1.01725L0.0375959 1.09213C0.0126049 1.13384 0 1.20046 0 1.29215C0 1.3838 0.024991 1.49628 0.0750167 1.62946C0.574836 2.80417 1.11838 3.93708 1.70564 5.02836C2.29291 6.11965 2.80323 6.99871 3.23631 7.66476C3.66947 8.33129 4.11099 8.96035 4.56087 9.55164C5.01076 10.1432 5.30855 10.5222 5.45425 10.6888C5.60012 10.8556 5.7147 10.9803 5.79799 11.0636L6.11045 11.3635C6.31037 11.5634 6.60396 11.8029 6.99135 12.0819C7.37882 12.3611 7.80778 12.636 8.27845 12.907C8.7492 13.1775 9.29686 13.3982 9.92172 13.569C10.5465 13.7399 11.1546 13.8085 11.7461 13.7754H13.1832C13.4746 13.7502 13.6954 13.6586 13.8455 13.5004L13.8952 13.4378C13.9286 13.388 13.9599 13.3108 13.9888 13.2068C14.0181 13.1027 14.0326 12.988 14.0326 12.8632C14.0241 12.5051 14.0513 12.1823 14.1136 11.8949C14.1759 11.6076 14.2469 11.391 14.3263 11.2452C14.4057 11.0994 14.4952 10.9764 14.5949 10.8767C14.6947 10.7768 14.7659 10.7163 14.8077 10.6954C14.8491 10.6745 14.8823 10.6603 14.9073 10.6517C15.1072 10.5851 15.3425 10.6496 15.6135 10.8456C15.8843 11.0413 16.1383 11.2831 16.3758 11.5704C16.6133 11.8579 16.8985 12.1805 17.2317 12.5387C17.5651 12.8969 17.8566 13.1633 18.1064 13.3385L18.3562 13.4884C18.523 13.5884 18.7396 13.6801 19.0063 13.7634C19.2724 13.8466 19.5056 13.8675 19.7058 13.8258L22.9046 13.7759C23.221 13.7759 23.4672 13.7236 23.6419 13.6196C23.8168 13.5155 23.9208 13.4008 23.9543 13.276C23.9877 13.1511 23.9895 13.0094 23.9607 12.8509C23.931 12.6929 23.9018 12.5824 23.8728 12.5199Z" fill="#6D90CD"/>
</svg>
